<svg xmlns="http://www.w3.org/2000/svg" viewBox="0 0 128 128" width="32" height="32">
	<style>
		tspan { white-space:pre }
		.shp0 { fill: #eaeaea } 
		.shp1 { fill: #8a4966 } 
		.shp2 { fill: #596675 } 
	</style>
	<path id="Layer" class="shp0" d="M102.63 78.93C102.28 78.2 101.93 77.45 101.61 76.7C101.29 75.95 100.98 75.19 100.69 74.42C100.4 73.65 100.14 72.88 99.88 72.1C99.63 71.32 99.4 70.53 99.19 69.74C99.05 69.23 98.9 68.72 98.74 68.22C98.57 67.71 98.39 67.21 98.19 66.72C98 66.23 97.79 65.74 97.56 65.26C97.34 64.78 97.1 64.31 96.84 63.84C98.13 62.43 99.38 60.99 100.59 59.51C101.8 58.04 102.97 56.52 104.1 54.98C105.22 53.44 106.3 51.86 107.34 50.26C108.37 48.65 109.36 47.02 110.31 45.36C121.66 25.69 125.25 6.5 118.31 2.49C111.38 -1.51 96.55 11.19 85.19 30.86C84.38 32.24 83.61 33.65 82.86 35.07C82.12 36.49 81.41 37.93 80.73 39.38C80.05 40.84 79.41 42.31 78.79 43.79C78.18 45.27 77.6 46.77 77.06 48.28C74.95 47.61 72.79 47.1 70.61 46.76C68.42 46.42 66.21 46.25 64 46.25C61.79 46.25 59.58 46.42 57.39 46.76C55.21 47.1 53.05 47.61 50.94 48.28C50.4 46.77 49.82 45.27 49.21 43.79C48.6 42.31 47.95 40.84 47.27 39.38C46.59 37.93 45.88 36.49 45.14 35.07C44.39 33.64 43.62 32.24 42.81 30.85C31.45 11.18 16.62 -1.52 9.69 2.49C2.75 6.49 6.34 25.69 17.69 45.35C18.64 47.01 19.63 48.65 20.66 50.25C21.7 51.86 22.78 53.43 23.9 54.98C25.03 56.52 26.19 58.03 27.4 59.51C28.61 60.99 29.87 62.43 31.16 63.84C30.9 64.3 30.66 64.78 30.44 65.26C30.21 65.74 30 66.22 29.81 66.72C29.61 67.21 29.43 67.71 29.26 68.21C29.1 68.72 28.95 69.22 28.81 69.74C28.6 70.53 28.37 71.31 28.12 72.09C27.86 72.87 27.6 73.65 27.31 74.42C27.02 75.18 26.71 75.94 26.39 76.7C26.07 77.45 25.72 78.19 25.37 78.93L9.69 99.15L21.02 98.15L12.94 110.27L26.03 106.86C32.77 118.32 47.23 126.25 64 126.25C80.77 126.25 95.23 118.32 101.97 106.86L115.06 110.27L106.98 98.15L118.31 99.15L102.63 78.93Z" />
	<path id="Layer" class="shp1" d="M41.83 52.58C41.33 51.12 40.79 49.68 40.22 48.26C39.65 46.83 39.04 45.42 38.4 44.02C37.76 42.63 37.08 41.25 36.38 39.89C35.67 38.52 34.92 37.18 34.15 35.85C27.61 24.53 20.73 17.29 16.29 13.92C16.98 19.45 19.81 29.03 26.35 40.35C27.14 41.74 27.97 43.11 28.83 44.45C29.69 45.8 30.58 47.12 31.51 48.42C32.44 49.72 33.4 50.99 34.39 52.24C35.39 53.49 36.41 54.71 37.47 55.91C37.81 55.6 38.16 55.3 38.51 55.01C38.86 54.72 39.22 54.43 39.58 54.15C39.95 53.88 40.32 53.61 40.69 53.34C41.07 53.08 41.45 52.82 41.83 52.57L41.83 52.58Z" />
	<path id="Layer" class="shp1" d="M93.85 35.85C93.08 37.18 92.33 38.52 91.62 39.89C90.92 41.25 90.24 42.63 89.6 44.02C88.96 45.42 88.35 46.83 87.78 48.26C87.21 49.68 86.67 51.12 86.17 52.58C86.55 52.82 86.93 53.08 87.31 53.34C87.68 53.61 88.05 53.88 88.42 54.15C88.78 54.43 89.14 54.72 89.49 55.01C89.84 55.3 90.19 55.6 90.53 55.91C91.59 54.71 92.61 53.49 93.61 52.24C94.6 50.99 95.56 49.72 96.49 48.42C97.42 47.12 98.31 45.8 99.17 44.45C100.03 43.11 100.86 41.74 101.65 40.35C108.19 29.03 111.02 19.45 111.71 13.92C107.27 17.29 100.39 24.53 93.85 35.85L93.85 35.85Z" />
	<g id="Layer">
		<path id="Layer" class="shp2" d="M48.81 89.72C46.43 89.72 44.5 87.79 44.5 85.41C44.5 83.02 46.43 81.09 48.81 81.09C51.2 81.09 53.13 83.02 53.13 85.41C53.13 87.79 51.2 89.72 48.81 89.72Z" />
		<path id="Layer" class="shp2" d="M79.19 89.72C76.8 89.72 74.88 87.79 74.88 85.41C74.88 83.02 76.8 81.09 79.19 81.09C81.57 81.09 83.5 83.02 83.5 85.41C83.5 87.79 81.57 89.72 79.19 89.72Z" />
		<path id="Layer" class="shp2" d="M70.5 96.58C70.5 99.94 67.59 100.5 64 100.5C60.41 100.5 57.5 99.94 57.5 96.58C57.61 94.93 58.34 93.39 59.55 92.26C60.75 91.13 62.35 90.5 64 90.5C65.65 90.5 67.25 91.13 68.45 92.26C69.66 93.39 70.39 94.93 70.5 96.58Z" />
	</g>
</svg>